<svg width="24" height="24" viewBox="0 0 24 24" fill="none" xmlns="http://www.w3.org/2000/svg">
<path d="M1.99951 14.0001L1.99952 13.5C1.99952 10.2001 1.99953 8.55024 3.02465 7.52512C4.04978 6.5 5.69969 6.5 8.99952 6.5H15.0007C18.3001 6.5 19.9497 6.5 20.9748 7.52492C21.9999 8.54983 22.0002 10.1995 22.0007 13.4988L22.0008 13.9991C22.0014 17.2995 22.0017 18.9497 20.9765 19.975C19.9513 21.0004 18.3011 21.0003 15.0007 21.0003L8.99936 21.0001C5.69958 21.0001 4.0497 21 3.0246 19.9749C1.9995 18.9498 1.99951 17.2999 1.99951 14.0001Z" fill="#141B34"/>
<path d="M8.49951 6.5C8.49951 5.09554 8.49951 4.3933 8.83657 3.88886C8.98249 3.67048 9.16999 3.48298 9.38837 3.33706C9.89282 3 10.5951 3 11.9995 3C13.404 3 14.1062 3 14.6107 3.33706C14.8291 3.48298 15.0166 3.67048 15.1625 3.88886C15.4995 4.3933 15.4995 5.09554 15.4995 6.5" stroke="#141B34" stroke-width="1.5" stroke-linecap="round" stroke-linejoin="round"/>
<path d="M5.99902 10.5H17.999" stroke="white" stroke-width="1.5" stroke-linecap="round" stroke-linejoin="round"/>
</svg>
