<svg width="32" height="32" viewBox="0 0 32 32" fill="none" xmlns="http://www.w3.org/2000/svg">
<path d="M15.2986 3.13273C15.6457 2.32677 16.7884 2.32677 17.1355 3.13273L20.3083 10.5003C20.4531 10.8364 20.7699 11.0667 21.1344 11.1005L29.1218 11.8413C29.9955 11.9223 30.3487 13.0091 29.6894 13.5883L23.6629 18.8825C23.3879 19.124 23.2669 19.4965 23.3474 19.8536L25.1111 27.679C25.304 28.535 24.3795 29.2067 23.625 28.7587L16.7276 24.6632C16.4129 24.4763 16.0212 24.4763 15.7065 24.6632L8.80912 28.7587C8.05459 29.2067 7.13009 28.535 7.32303 27.679L9.08672 19.8536C9.16719 19.4965 9.04616 19.124 8.77117 18.8825L2.74468 13.5883C2.08542 13.0091 2.43855 11.9223 3.31232 11.8413L11.2997 11.1005C11.6642 11.0667 11.981 10.8364 12.1258 10.5003L15.2986 3.13273Z" fill="#FACC15"/>
</svg>
