<svg width="32" height="32" viewBox="0 0 32 32" fill="none" xmlns="http://www.w3.org/2000/svg">
<path d="M26.3737 18.1657C29.4519 15.3941 29.7004 10.6518 26.9288 7.57363C24.1572 4.49542 19.4149 4.24689 16.3367 7.01852L7.04741 15.3827L17.0844 26.5298L26.3737 18.1657Z" fill="#FFD7C2"/>
<path d="M5.57359 18.3129C2.49538 15.5413 2.24685 10.7991 5.01848 7.72085C7.79011 4.64264 12.5323 4.39411 15.6105 7.16574L24.8999 15.5299L14.8629 26.677L5.57359 18.3129Z" fill="#FFD7C2"/>
<path d="M17.3615 16.7948C18.2484 15.7365 19.8252 15.5976 20.8834 16.4844L25.4821 20.3382C26.5404 21.2251 26.6793 22.8019 25.7925 23.8601C24.9057 24.9184 23.3289 25.0573 22.2706 24.1705L17.6719 20.3167C16.6137 19.4298 16.4747 17.853 17.3615 16.7948Z" fill="#FFD7C2"/>
<path d="M14.9636 20.0633C15.8504 19.0051 17.4272 18.8661 18.4855 19.753L22.3177 22.9645C23.376 23.8513 23.5149 25.4281 22.6281 26.4864C21.7413 27.5446 20.1645 27.6836 19.1062 26.7967L15.274 23.5852C14.2157 22.6984 14.0767 21.1216 14.9636 20.0633Z" fill="#FFD7C2"/>
<path d="M20.5241 15.0633C21.411 14.0051 22.9878 13.8661 24.046 14.753L27.1118 17.3222C28.1701 18.209 28.309 19.7858 27.4222 20.8441C26.5354 21.9023 24.9586 22.0413 23.9003 21.1544L20.8345 18.5852C19.7763 17.6984 19.6373 16.1216 20.5241 15.0633Z" fill="#FFD7C2"/>
<path d="M12.2847 21.6801C12.9942 20.8335 14.2556 20.7224 15.1022 21.4318L18.9345 24.6433C19.7811 25.3528 19.8923 26.6142 19.1828 27.4608C18.4733 28.3074 17.2119 28.4186 16.3653 27.7091L12.533 24.4976C11.6864 23.7882 11.5753 22.5267 12.2847 21.6801Z" fill="#FFD7C2"/>
<path d="M26.6314 21.6519C26.8431 21.8292 26.8709 22.1446 26.6935 22.3562C26.5161 22.5679 26.2008 22.5957 25.9891 22.4183L23.3836 20.2348C23.1719 20.0574 23.1441 19.7421 23.3215 19.5304C23.4988 19.3188 23.8142 19.291 24.0259 19.4684L26.6314 21.6519Z" fill="#F1B99B"/>
<path d="M23.3248 24.2481C23.5364 24.4254 23.5642 24.7408 23.3869 24.9524C23.2095 25.1641 22.8941 25.1919 22.6825 25.0145L20.3831 23.0876C20.1715 22.9102 20.1437 22.5949 20.3211 22.3832C20.4984 22.1716 20.8138 22.1438 21.0254 22.3212L23.3248 24.2481Z" fill="#F1B99B"/>
<path d="M20.3248 26.2481C20.5364 26.4254 20.5642 26.7408 20.3869 26.9524C20.2095 27.1641 19.8941 27.1919 19.6825 27.0145L17.3831 25.0876C17.1715 24.9102 17.1437 24.5949 17.3211 24.3832C17.4984 24.1716 17.8138 24.1438 18.0254 24.3212L20.3248 26.2481Z" fill="#F1B99B"/>
<path d="M17 23.3903C17.9165 25.2233 16.5 26.3903 15.5 26.8903L4.99998 16.3902C7.29203 14.0982 8.99998 14.3902 9.99998 15.3902C10.2898 15.6801 10.5 15.8902 10.5 16.5858C11.5 16.3902 11.9325 16.8128 12.1337 16.9216C13 17.3903 13.8863 18.5033 13.5 19.3903C14.5 19.3903 15.0842 19.8184 15.4999 20.3902C15.4999 20.3902 16 21.3903 16 22.3903C16.5 22.3903 16.75 22.8903 17 23.3903L17 23.3903Z" fill="#F1B99B"/>
<path d="M12.4329 17.7948C11.5461 16.7365 9.96927 16.5976 8.91102 17.4844L5.84521 20.0536C4.78697 20.9405 4.64801 22.5173 5.53484 23.5755C6.42167 24.6338 7.99848 24.7727 9.05672 23.8859L12.1225 21.3167C13.1808 20.4298 13.3197 18.853 12.4329 17.7948Z" fill="#FFD7C2"/>
<path d="M14.8309 21.0633C13.944 20.0051 12.3672 19.8661 11.309 20.753L9.00961 22.6799C7.95137 23.5667 7.81241 25.1435 8.69924 26.2018C9.58608 27.26 11.1629 27.399 12.2211 26.5121L14.5205 24.5852C15.5787 23.6984 15.7177 22.1216 14.8309 21.0633Z" fill="#FFD7C2"/>
<path d="M9.5037 16.0633C8.61687 15.0051 7.04007 14.8661 5.98182 15.753L4.44892 17.0376C3.39067 17.9244 3.25171 19.5012 4.13854 20.5595C5.02538 21.6177 6.60218 21.7567 7.66043 20.8698L9.19333 19.5852C10.2516 18.6984 10.3905 17.1216 9.5037 16.0633Z" fill="#FFD7C2"/>
<path d="M16.4164 23.6801C15.707 22.8335 14.4455 22.7224 13.5989 23.4318L12.066 24.7164C11.2194 25.4259 11.1083 26.6873 11.8177 27.5339C12.5272 28.3805 13.7886 28.4917 14.6352 27.7822L16.1681 26.4976C17.0147 25.7882 17.1259 24.5267 16.4164 23.6801Z" fill="#FFD7C2"/>
<path d="M6.38323 19.4684C6.17158 19.6458 6.14378 19.9611 6.32115 20.1728C6.49852 20.3844 6.81388 20.4122 7.02553 20.2349L10.7811 17.0876C10.9928 16.9102 11.0206 16.5948 10.8432 16.3832C10.6658 16.1715 10.3505 16.1438 10.1388 16.3211L6.38323 19.4684Z" fill="#F1B99B"/>
<path d="M9.03948 22.4518C8.82783 22.6292 8.80003 22.9445 8.9774 23.1562C9.15477 23.3678 9.47013 23.3956 9.68178 23.2182L13.4175 20.0876C13.6292 19.9103 13.6569 19.5949 13.4796 19.3833C13.3022 19.1716 12.9868 19.1438 12.7752 19.3212L9.03948 22.4518Z" fill="#F1B99B"/>
<path d="M12.3832 25.0637C12.1716 25.2411 12.1438 25.5565 12.3212 25.7681C12.4985 25.9798 12.8139 26.0076 13.0255 25.8302L16.2983 23.0876C16.5099 22.9102 16.5377 22.5948 16.3604 22.3832C16.183 22.1715 15.8676 22.1437 15.656 22.3211L12.3832 25.0637Z" fill="#F1B99B"/>
<path d="M18 11.6472C14.5 13.6472 13.7572 12.9718 13 12.6472C9.5 11.1472 9.00001 7.64725 13.5 8.1472L17 8.4285L27 17.1472C22.2 15.9472 19 12.9806 18 11.6472Z" fill="#F1B99B"/>
<path d="M21.0638 7.04305C20.712 5.99601 19.578 5.43243 18.5309 5.78425L11.8955 8.01387C11.372 8.18978 11.0902 8.75678 11.2661 9.2803C11.7938 10.8509 13.4948 11.6962 15.0654 11.1685L19.805 9.57592C20.852 9.2241 21.4156 8.09009 21.0638 7.04305Z" fill="#FFD7C2"/>
</svg>
