<svg width="32" height="32" viewBox="0 0 32 32" fill="none" xmlns="http://www.w3.org/2000/svg">
<path d="M2 28.9926V9.08272C2 8.31867 2.63023 7.69556 3.403 7.69556H28.597C29.3698 7.69556 30 8.31867 30 9.08272V28.9926H2Z" fill="#8694A0"/>
<path d="M7.01953 28.9926V4.38716C7.01953 3.62311 7.64976 3 8.42253 3H23.5779C24.3507 3 24.9809 3.62311 24.9809 4.38716V28.9926H7.01953Z" fill="#D0D5DB"/>
<path d="M13.104 29V24.9721C13.104 24.208 13.7342 23.5849 14.507 23.5849H17.4856C18.2583 23.5849 18.8886 24.208 18.8886 24.9721V29H13.104Z" fill="#677683"/>
<path d="M5.21858 10.3809H4.18321C3.8973 10.3809 3.66553 10.61 3.66553 10.8927V11.9164C3.66553 12.1991 3.8973 12.4282 4.18321 12.4282H5.21858C5.50449 12.4282 5.73627 12.1991 5.73627 11.9164V10.8927C5.73627 10.61 5.50449 10.3809 5.21858 10.3809Z" fill="#D0D5DB"/>
<path d="M5.21858 15.4028H4.18321C3.8973 15.4028 3.66553 15.632 3.66553 15.9147V16.9384C3.66553 17.221 3.8973 17.4502 4.18321 17.4502H5.21858C5.50449 17.4502 5.73627 17.221 5.73627 16.9384V15.9147C5.73627 15.632 5.50449 15.4028 5.21858 15.4028Z" fill="#D0D5DB"/>
<path d="M5.21858 20.4248H4.18321C3.8973 20.4248 3.66553 20.654 3.66553 20.9366V21.9603C3.66553 22.243 3.8973 22.4722 4.18321 22.4722H5.21858C5.50449 22.4722 5.73627 22.243 5.73627 21.9603V20.9366C5.73627 20.654 5.50449 20.4248 5.21858 20.4248Z" fill="#D0D5DB"/>
<path d="M27.8919 10.3809H26.8566C26.5706 10.3809 26.3389 10.61 26.3389 10.8927V11.9164C26.3389 12.1991 26.5706 12.4282 26.8566 12.4282H27.8919C28.1778 12.4282 28.4096 12.1991 28.4096 11.9164V10.8927C28.4096 10.61 28.1778 10.3809 27.8919 10.3809Z" fill="#D0D5DB"/>
<path d="M27.8919 15.4028H26.8566C26.5706 15.4028 26.3389 15.632 26.3389 15.9147V16.9384C26.3389 17.221 26.5706 17.4502 26.8566 17.4502H27.8919C28.1778 17.4502 28.4096 17.221 28.4096 16.9384V15.9147C28.4096 15.632 28.1778 15.4028 27.8919 15.4028Z" fill="#D0D5DB"/>
<path d="M27.8919 20.4248H26.8566C26.5706 20.4248 26.3389 20.654 26.3389 20.9366V21.9603C26.3389 22.243 26.5706 22.4722 26.8566 22.4722H27.8919C28.1778 22.4722 28.4096 22.243 28.4096 21.9603V20.9366C28.4096 20.654 28.1778 20.4248 27.8919 20.4248Z" fill="#D0D5DB"/>
<path d="M11.7161 6.12299H10.6808C10.3949 6.12299 10.1631 6.35214 10.1631 6.63483V7.65851C10.1631 7.94119 10.3949 8.17035 10.6808 8.17035H11.7161C12.002 8.17035 12.2338 7.94119 12.2338 7.65851V6.63483C12.2338 6.35214 12.002 6.12299 11.7161 6.12299Z" fill="#8694A0"/>
<path d="M16.5179 6.12299H15.4825C15.1966 6.12299 14.9648 6.35214 14.9648 6.63483V7.65851C14.9648 7.94119 15.1966 8.17035 15.4825 8.17035H16.5179C16.8038 8.17035 17.0356 7.94119 17.0356 7.65851V6.63483C17.0356 6.35214 16.8038 6.12299 16.5179 6.12299Z" fill="#8694A0"/>
<path d="M21.327 6.12299H20.2916C20.0057 6.12299 19.7739 6.35214 19.7739 6.63483V7.65851C19.7739 7.94119 20.0057 8.17035 20.2916 8.17035H21.327C21.6129 8.17035 21.8447 7.94119 21.8447 7.65851V6.63483C21.8447 6.35214 21.6129 6.12299 21.327 6.12299Z" fill="#8694A0"/>
<path d="M11.7161 11.2488H10.6808C10.3949 11.2488 10.1631 11.4779 10.1631 11.7606V12.7843C10.1631 13.067 10.3949 13.2961 10.6808 13.2961H11.7161C12.002 13.2961 12.2338 13.067 12.2338 12.7843V11.7606C12.2338 11.4779 12.002 11.2488 11.7161 11.2488Z" fill="#8694A0"/>
<path d="M16.5179 11.2488H15.4825C15.1966 11.2488 14.9648 11.4779 14.9648 11.7606V12.7843C14.9648 13.067 15.1966 13.2961 15.4825 13.2961H16.5179C16.8038 13.2961 17.0356 13.067 17.0356 12.7843V11.7606C17.0356 11.4779 16.8038 11.2488 16.5179 11.2488Z" fill="#8694A0"/>
<path d="M21.327 11.2488H20.2916C20.0057 11.2488 19.7739 11.4779 19.7739 11.7606V12.7843C19.7739 13.067 20.0057 13.2961 20.2916 13.2961H21.327C21.6129 13.2961 21.8447 13.067 21.8447 12.7843V11.7606C21.8447 11.4779 21.6129 11.2488 21.327 11.2488Z" fill="#8694A0"/>
<path d="M11.7161 16.382H10.6808C10.3949 16.382 10.1631 16.6112 10.1631 16.8939V17.9175C10.1631 18.2002 10.3949 18.4294 10.6808 18.4294H11.7161C12.002 18.4294 12.2338 18.2002 12.2338 17.9175V16.8939C12.2338 16.6112 12.002 16.382 11.7161 16.382Z" fill="#8694A0"/>
<path d="M16.5179 16.382H15.4825C15.1966 16.382 14.9648 16.6112 14.9648 16.8939V17.9175C14.9648 18.2002 15.1966 18.4294 15.4825 18.4294H16.5179C16.8038 18.4294 17.0356 18.2002 17.0356 17.9175V16.8939C17.0356 16.6112 16.8038 16.382 16.5179 16.382Z" fill="#8694A0"/>
<path d="M21.327 16.382H20.2916C20.0057 16.382 19.7739 16.6112 19.7739 16.8939V17.9175C19.7739 18.2002 20.0057 18.4294 20.2916 18.4294H21.327C21.6129 18.4294 21.8447 18.2002 21.8447 17.9175V16.8939C21.8447 16.6112 21.6129 16.382 21.327 16.382Z" fill="#8694A0"/>
</svg>
