<svg width="32" height="32" viewBox="0 0 32 32" fill="none" xmlns="http://www.w3.org/2000/svg">
<path d="M7.34764 28.3722C8.37498 27.3448 8.37498 25.6784 7.34764 24.6511C6.32029 23.6237 4.65386 23.6237 3.62651 24.6511C2.59917 25.6784 1.75146 30.2481 1.75146 30.2481C1.75146 30.2481 6.32029 29.4004 7.34846 28.373L7.34764 28.3722Z" fill="#FF3D29"/>
<path d="M13.1818 22.8521L11.6219 25.3164C11.4394 25.6068 11.0328 25.6525 10.7881 25.4077L6.69127 21.3109C6.44858 21.0682 6.49421 20.6616 6.78254 20.477L9.24684 18.9171C9.4605 18.7823 9.73639 18.8134 9.91478 18.9918L13.1092 22.1863C13.2876 22.3647 13.3187 22.6405 13.1839 22.8542L13.1818 22.8521Z" fill="#7E8EA5"/>
<path d="M14.6247 13.0691L9.66296 18.0309C9.46797 18.2259 9.14853 18.2259 8.95354 18.0309L4.31742 13.3948C4.02909 13.1064 4.18466 12.6148 4.58501 12.5464L13.0337 11.0674C13.1955 11.0383 13.3594 11.0902 13.4756 11.2063L14.6268 12.3576C14.8218 12.5526 14.8218 12.872 14.6268 13.067L14.6247 13.0691Z" fill="#CFDBE9"/>
<path d="M18.8609 17.3054L13.8991 22.2672C13.7042 22.4622 13.7042 22.7817 13.8991 22.9767L18.5353 27.6128C18.8236 27.9011 19.3152 27.7455 19.3837 27.3452L20.8627 18.8965C20.8917 18.7347 20.8398 18.5708 20.7237 18.4546L19.5724 17.3034C19.3774 17.1084 19.058 17.1084 18.863 17.3034L18.8609 17.3054Z" fill="#CFDBE9"/>
<path d="M17.9564 5.21633C11.0883 9.3961 7.35869 17.2246 8.61159 19.2201L12.7125 23.3211C14.7039 24.5739 22.5365 20.8443 26.7163 13.9762C29.498 9.40647 29.2823 6.37795 28.8155 4.84502C28.5625 4.01529 27.9194 3.37225 27.0897 3.11918C25.5568 2.65246 22.5282 2.43673 17.9585 5.2184L17.9564 5.21633Z" fill="#EEF0F4"/>
<path d="M18.559 8.49339C17.2128 9.83963 17.2128 12.026 18.559 13.3722C19.9053 14.7184 22.0916 14.7184 23.4379 13.3722C24.7841 12.026 24.7841 9.83963 23.4379 8.49339C22.0916 7.14715 19.9053 7.14715 18.559 8.49339Z" fill="white"/>
<path d="M19.1813 9.11569C20.1832 8.11379 21.8137 8.11379 22.8156 9.11569C23.8175 10.1176 23.8175 11.748 22.8156 12.7499C21.8137 13.7518 20.1832 13.7518 19.1813 12.7499C18.1794 11.748 18.1794 10.1176 19.1813 9.11569ZM18.559 8.49339C17.2128 9.83963 17.2128 12.026 18.559 13.3722C19.9053 14.7184 22.0916 14.7184 23.4379 13.3722C24.7841 12.026 24.7841 9.83963 23.4379 8.49339C22.0916 7.14715 19.9053 7.14715 18.559 8.49339Z" fill="#96B1FD"/>
<path d="M22.2256 3.27057L28.6601 9.70513C29.3115 7.45241 29.1144 5.83651 28.8116 4.84498C28.5585 4.01525 27.9155 3.37221 27.0857 3.11914C26.0963 2.81837 24.4804 2.6213 22.2256 3.27057Z" fill="#4C7AFB"/>
<path d="M16.4745 14.8333C16.6482 14.6595 16.9299 14.6595 17.1037 14.8333C17.2774 15.007 17.2774 15.2887 17.1037 15.4625L12.07 20.4962C11.8962 20.6699 11.6145 20.6699 11.4408 20.4962C11.267 20.3224 11.267 20.0407 11.4408 19.867L16.4745 14.8333Z" fill="#CFDBE9"/>
</svg>
