<svg width="32" height="32" viewBox="0 0 32 32" fill="none" xmlns="http://www.w3.org/2000/svg">
<path d="M26.7684 8.47754H5.23839C3.70175 8.47754 2.45605 9.72687 2.45605 11.268V26.2095C2.45605 27.7507 3.70175 29 5.23839 29H26.7684C28.305 29 29.5507 27.7507 29.5507 26.2095V11.268C29.5507 9.72687 28.305 8.47754 26.7684 8.47754Z" fill="#9A4E1B"/>
<path d="M18.4948 3L13.4822 3.00001C11.5022 3.00001 9.88281 4.24755 9.88281 6.24074V9.53319H11.5169V7.29639C11.5169 6.21121 11.3844 4.47642 13.4822 4.47642H18.4948C20.5853 4.47642 20.4601 6.21121 20.4601 7.29639V9.53319H22.0942V6.24074C22.0942 4.25493 20.4822 3 18.4948 3Z" fill="#72350C"/>
<path d="M27.1293 7.61389H4.87066C3.28524 7.61389 2 8.90289 2 10.4929V16.3913C2 17.9814 3.28524 19.2704 4.87066 19.2704H27.1293C28.7148 19.2704 30 17.9814 30 16.3913V10.4929C30 8.90289 28.7148 7.61389 27.1293 7.61389Z" fill="#72350C"/>
<path d="M18.3997 17.1959V19.3884C18.3997 20.7098 17.3177 21.795 16.0002 21.795C14.6826 21.795 13.6006 20.7098 13.6006 19.3884V17.1959H18.3997Z" fill="#FFC300"/>
</svg>
