<svg width="32" height="32" viewBox="0 0 32 32" fill="none" xmlns="http://www.w3.org/2000/svg">
<path fill-rule="evenodd" clip-rule="evenodd" d="M15.3943 19.0059C15.8053 19.0572 16.0969 19.4321 16.0455 19.8431C15.8953 21.0442 16.082 24.8474 17.095 26.3262C18.0768 27.7595 19.911 29.0001 23.3013 29.0001C23.7155 29.0001 24.0513 29.3359 24.0513 29.7501C24.0513 30.1643 23.7155 30.5001 23.3013 30.5001C19.4915 30.5001 17.159 29.074 15.8575 27.1739C14.5872 25.3194 14.3739 21.1226 14.5571 19.6571C14.6084 19.246 14.9833 18.9545 15.3943 19.0059Z" fill="#58B980"/>
<path d="M23.5454 14.1411C27.4718 15.5636 27.1305 18.2585 26.469 19.4281C25.3587 21.593 23.2769 21.209 22.3748 20.7464C24.0627 22.4989 23.0242 24.3435 22.294 25.0468C20.0644 27.3767 17.4279 25.1685 16.3883 23.7732C15.3426 22.4978 15.0738 20.5123 15.07 19.679L15.07 14.1411L19.245 14.0603C21.4835 13.7303 23.0447 13.9767 23.5454 14.1411Z" fill="#71D192"/>
<path d="M23.5454 14.1747C27.4718 12.7522 27.1305 10.0573 26.469 8.88771C25.3587 6.72277 23.2769 7.10679 22.3748 7.56942C24.0627 5.81694 23.0242 3.97227 22.294 3.26902C20.0644 0.939063 17.4279 3.14728 16.3883 4.54263C15.3426 5.81797 15.0738 7.80346 15.07 8.63678L15.07 14.1747L19.245 14.2555C21.4835 14.5855 23.0447 14.3391 23.5454 14.1747Z" fill="#58B980"/>
<path d="M6.6548 14.1411C2.72841 15.5636 3.06974 18.2585 3.73121 19.4281C4.84153 21.593 6.92326 21.209 7.82536 20.7464C6.13752 22.4989 7.17595 24.3435 7.90616 25.0468C10.1358 27.3767 12.7723 25.1685 13.8119 23.7732C14.8576 22.4978 15.1264 20.5123 15.1302 19.679L15.1302 14.0603L10.9552 14.0603C8.71666 13.7303 7.15554 13.9767 6.6548 14.1411Z" fill="#58B980"/>
<path d="M6.6548 14.1747C2.72841 12.7522 3.06974 10.0573 3.73121 8.88771C4.84153 6.72277 6.92326 7.10679 7.82536 7.56942C6.13752 5.81694 7.17595 3.97227 7.90616 3.26902C10.1358 0.939063 12.7723 3.14728 13.8119 4.54263C14.8576 5.81797 15.1264 7.80346 15.1302 8.63678L15.1302 14.1747L10.9552 14.2555C8.71666 14.5855 7.15554 14.3391 6.6548 14.1747Z" fill="#71D192"/>
</svg>
