<svg width="32" height="32" viewBox="0 0 32 32" fill="none" xmlns="http://www.w3.org/2000/svg">
<path d="M28 22C28 26 26 30 16 30C6 30 4 26 4 22C4 12.6667 13 8 16 8C19 8 28 12.6667 28 22Z" fill="#FFC300"/>
<path d="M10.4723 4.47229L14 8H18L21.5277 4.47229C21.9413 4.05868 21.5475 3.36312 20.98 3.50498L20.0728 3.73179C19.3895 3.9026 18.6659 3.77726 18.0799 3.38659C16.8204 2.54694 15.1796 2.54694 13.9201 3.38659C13.3341 3.77726 12.6105 3.9026 11.9272 3.73179L11.02 3.50498C10.4525 3.36312 10.0587 4.05868 10.4723 4.47229Z" fill="#FFC300"/>
<path d="M12 8C12 7.44772 12.4477 7 13 7H19C19.5523 7 20 7.44772 20 8C20 8.55228 19.5523 9 19 9H13C12.4477 9 12 8.55228 12 8Z" fill="#FF8700"/>
<path opacity="0.8" d="M19.4316 16.5469C19.5684 16.1281 20.0111 15.9017 20.4209 16.041C20.8308 16.1807 21.0525 16.6337 20.916 17.0527L20.2158 19.2002H21.2178C21.6498 19.2004 22 19.5583 22 20C22 20.4417 21.6499 20.7996 21.2178 20.7998H19.6943L18.8291 23.4531C18.7225 23.7797 18.4237 24 18.0869 24C17.7501 24 17.4513 23.7797 17.3447 23.4531L16 19.3301L14.6553 23.4531C14.5487 23.7797 14.2498 24 13.9131 24C13.5763 24 13.2775 23.7797 13.1709 23.4531L12.3057 20.7998H10.7822C10.3502 20.7996 10 20.4417 10 20C10 19.5584 10.3502 19.2004 10.7822 19.2002H11.7842L11.084 17.0527C10.9475 16.6338 11.1684 16.1808 11.5781 16.041C11.9881 15.9013 12.4315 16.128 12.5684 16.5469L13.9131 20.6699L15.2578 16.5469C15.3645 16.2204 15.6633 16 16 16C16.3367 16 16.6356 16.2204 16.7422 16.5469L18.0869 20.6699L19.4316 16.5469Z" fill="white"/>
</svg>
