<svg width="32" height="32" viewBox="0 0 32 32" fill="none" xmlns="http://www.w3.org/2000/svg">
<path d="M7.60269 6.02173C6.69348 5.98898 6.49358 6.55036 6.26654 7.1531C2.8263 16.2861 3.00549 17.3458 3.0055 20C3.49696 29.5116 11.8734 31.2857 16.0002 30.9838C25.8174 30.8609 29.0119 25.1682 29.0119 20C29.0119 14.5199 26.4829 10.3167 25.157 8.66332C24.3912 7.84422 23.6332 8.32203 23.3499 8.66332C22.8789 9.26536 22.5461 10.1155 22.4386 10.4653C20.6202 6.5828 18.1042 2.93645 17.0735 1.59859C16.1398 0.517363 15.2647 1.14808 14.9439 1.59859C13.2074 3.53985 10.6368 8.30496 9.56854 10.4449C9.14874 8.76571 9.01563 7.83396 8.67264 6.84082C8.37571 6.08313 7.90303 6.03198 7.60269 6.02173Z" fill="#FC3B3B"/>
<path d="M10.8074 15.5057C10.3723 15.5057 10.0804 16.1311 9.90644 16.4476C8.98496 18.1239 8.71581 20.334 8.71582 21.8225C8.99144 27.1569 13.6858 28.7572 16.0002 28.5879C21.506 28.519 23.3009 24.721 23.3009 21.8225C23.3009 18.7602 21.9836 17.1177 21.2386 16.1886L21.2305 16.1785C20.801 15.7192 20.3759 15.9871 20.217 16.1785C19.9529 16.5162 19.7662 16.993 19.7059 17.1891C18.6861 15.0117 17.1836 12.2528 16.6055 11.5025C16.0819 10.8962 15.5911 11.2499 15.4112 11.5025C14.4373 12.5912 12.8728 15.799 12.2737 16.9991C11.8723 16.4067 11.816 16.3504 11.5856 15.9999C11.2733 15.5722 10.9759 15.5114 10.8074 15.5057Z" fill="#FFC300"/>
</svg>
