<svg xmlns="http://www.w3.org/2000/svg" xml:space="preserve" width="302.13028" height="300" viewBox="0 0 302.13028 299.99999"><path d="m519.019 98.33-.171-7.184c-27.953-.075-40.199-17.57-40.324-31.772-.093-10.89 7.384-22.419 19.8-22.528 10.47-.095 15.71 8.176 15.71 8.176s4.38-8.41 15.991-8.512c8.279-.071 19.412 6.886 19.554 23.005.133 15.152-10.795 31.763-30.56 38.815M513.643.003c-37.935.332-69.194 28.083-68.878 63.868.155 17.85 9.351 36.103 25.756 48.143l-4.261 20.59C546.29 155.698 583.921 97.52 583.617 62.8c-.309-35.39-31.366-63.132-69.974-62.796" style="fill:#ef2d38;fill-opacity:1;fill-rule:nonzero;stroke:none;stroke-width:1.33333" transform="translate(-967.737) scale(2.17585)"/><path d="m0 0-.486 20.579c-9.055-3.232-20.581-3.791-34.203.211l-2.17-10.474C-27.501 3.451-15.016-.719 0 0" style="fill:#831418;fill-opacity:1;fill-rule:nonzero;stroke:none" transform="matrix(2.90113 0 0 -2.90113 162.98 273.653)"/></svg>